<svg width="64" height="40" viewBox="0 0 64 40" fill="none" xmlns="http://www.w3.org/2000/svg">
<path d="M63 1H1V39H63V1Z" fill="#5C9E31"/>
<path d="M55.023 20.023L31.8661 34.653L8.97705 20.291L32.134 5.66101L55.023 20.023Z" fill="#FCEA2B"/>
<path d="M32 29C36.9706 29 41 24.9706 41 20C41 15.0294 36.9706 11 32 11C27.0294 11 23 15.0294 23 20C23 24.9706 27.0294 29 32 29Z" fill="#1E50A0"/>
<path d="M40.1586 23.7815C40.4885 23.0623 40.7226 22.3029 40.8549 21.5228C40.1113 19.9682 39.0271 18.6011 37.6828 17.5229C36.3384 16.4448 34.7685 15.6833 33.0895 15.295C31.4105 14.9067 29.6656 14.9017 27.9844 15.2802C26.3032 15.6587 24.7289 16.411 23.3783 17.4813C23.1844 18.1369 23.066 18.8125 23.0254 19.495C24.3525 18.4064 25.9159 17.6435 27.5907 17.2674C29.2655 16.8912 31.005 16.9123 32.6701 17.3289C34.3353 17.7455 35.8798 18.546 37.1801 19.6665C38.4805 20.787 39.5005 22.1962 40.1586 23.7815Z" fill="white"/>
<path d="M63 1H1V39H63V1Z" stroke="black" stroke-width="2" stroke-linecap="round" stroke-linejoin="round"/>
</svg>
