<svg width="64" height="40" viewBox="0 0 64 40" fill="none" xmlns="http://www.w3.org/2000/svg">
<path d="M63 1H1V39H63V1Z" fill="white"/>
<path d="M63 1H1V6H63V1Z" fill="#D22F27"/>
<path d="M63 10H1V14H63V10Z" fill="#D22F27"/>
<path d="M63 18H1V22H63V18Z" fill="#D22F27"/>
<path d="M33 1H1V22H33V1Z" fill="#1E50A0"/>
<path d="M63 26H1V30H63V26Z" fill="#D22F27"/>
<path d="M5.5 7.75C6.4665 7.75 7.25 6.9665 7.25 6C7.25 5.0335 6.4665 4.25 5.5 4.25C4.5335 4.25 3.75 5.0335 3.75 6C3.75 6.9665 4.5335 7.75 5.5 7.75Z" fill="white"/>
<path d="M13.5 7.75C14.4665 7.75 15.25 6.9665 15.25 6C15.25 5.0335 14.4665 4.25 13.5 4.25C12.5335 4.25 11.75 5.0335 11.75 6C11.75 6.9665 12.5335 7.75 13.5 7.75Z" fill="white"/>
<path d="M21.5 7.75C22.4665 7.75 23.25 6.9665 23.25 6C23.25 5.0335 22.4665 4.25 21.5 4.25C20.5335 4.25 19.75 5.0335 19.75 6C19.75 6.9665 20.5335 7.75 21.5 7.75Z" fill="white"/>
<path d="M29.5 7.75C30.4665 7.75 31.25 6.9665 31.25 6C31.25 5.0335 30.4665 4.25 29.5 4.25C28.5335 4.25 27.75 5.0335 27.75 6C27.75 6.9665 28.5335 7.75 29.5 7.75Z" fill="white"/>
<path d="M25.5 11.75C26.4665 11.75 27.25 10.9665 27.25 10C27.25 9.0335 26.4665 8.25 25.5 8.25C24.5335 8.25 23.75 9.0335 23.75 10C23.75 10.9665 24.5335 11.75 25.5 11.75Z" fill="white"/>
<path d="M17.5 11.75C18.4665 11.75 19.25 10.9665 19.25 10C19.25 9.0335 18.4665 8.25 17.5 8.25C16.5335 8.25 15.75 9.0335 15.75 10C15.75 10.9665 16.5335 11.75 17.5 11.75Z" fill="white"/>
<path d="M9.5 11.75C10.4665 11.75 11.25 10.9665 11.25 10C11.25 9.0335 10.4665 8.25 9.5 8.25C8.5335 8.25 7.75 9.0335 7.75 10C7.75 10.9665 8.5335 11.75 9.5 11.75Z" fill="white"/>
<path d="M5.5 15.75C6.4665 15.75 7.25 14.9665 7.25 14C7.25 13.0335 6.4665 12.25 5.5 12.25C4.5335 12.25 3.75 13.0335 3.75 14C3.75 14.9665 4.5335 15.75 5.5 15.75Z" fill="white"/>
<path d="M13.5 15.75C14.4665 15.75 15.25 14.9665 15.25 14C15.25 13.0335 14.4665 12.25 13.5 12.25C12.5335 12.25 11.75 13.0335 11.75 14C11.75 14.9665 12.5335 15.75 13.5 15.75Z" fill="white"/>
<path d="M21.5 15.75C22.4665 15.75 23.25 14.9665 23.25 14C23.25 13.0335 22.4665 12.25 21.5 12.25C20.5335 12.25 19.75 13.0335 19.75 14C19.75 14.9665 20.5335 15.75 21.5 15.75Z" fill="white"/>
<path d="M29.5 15.75C30.4665 15.75 31.25 14.9665 31.25 14C31.25 13.0335 30.4665 12.25 29.5 12.25C28.5335 12.25 27.75 13.0335 27.75 14C27.75 14.9665 28.5335 15.75 29.5 15.75Z" fill="white"/>
<path d="M25.5 19.75C26.4665 19.75 27.25 18.9665 27.25 18C27.25 17.0335 26.4665 16.25 25.5 16.25C24.5335 16.25 23.75 17.0335 23.75 18C23.75 18.9665 24.5335 19.75 25.5 19.75Z" fill="white"/>
<path d="M17.5 19.75C18.4665 19.75 19.25 18.9665 19.25 18C19.25 17.0335 18.4665 16.25 17.5 16.25C16.5335 16.25 15.75 17.0335 15.75 18C15.75 18.9665 16.5335 19.75 17.5 19.75Z" fill="white"/>
<path d="M9.5 19.75C10.4665 19.75 11.25 18.9665 11.25 18C11.25 17.0335 10.4665 16.25 9.5 16.25C8.5335 16.25 7.75 17.0335 7.75 18C7.75 18.9665 8.5335 19.75 9.5 19.75Z" fill="white"/>
<path d="M63 34H1V39H63V34Z" fill="#D22F27"/>
<path d="M63 1H1V39H63V1Z" stroke="black" stroke-width="2" stroke-linecap="round" stroke-linejoin="round"/>
</svg>
